<svg width="218.35" height="42.02" xmlns="http://www.w3.org/2000/svg"><path d="m126.39 35.75 7.315-23.265 4.4 1.595-9.075 27.28h-5.445l-6.6-21.285-6.655 21.285h-5.445l-9.02-27.28 4.565-1.595 7.37 23.265 6.71-20.955h5.335l6.545 20.955ZM0 38.115l2.64-4.4q1.98 1.65 4.455 2.695a12.842 12.842 0 0 0 2.954.831 17.665 17.665 0 0 0 2.821.214 15.39 15.39 0 0 0 2.501-.19q1.332-.22 2.411-.694a7.535 7.535 0 0 0 1.358-.766q2.227-1.59 2.307-4.254a6.664 6.664 0 0 0 .003-.201 7.118 7.118 0 0 0-.142-1.445 6.156 6.156 0 0 0-.188-.7q-.33-.99-1.292-1.897a8.389 8.389 0 0 0-.831-.681q-.44-.319-.975-.638a18.504 18.504 0 0 0-.889-.496 28.171 28.171 0 0 0-1.377-.67q-.672-.307-1.449-.628a62.798 62.798 0 0 0-1.657-.655 57.347 57.347 0 0 1-2.1-.862q-1.643-.716-2.932-1.42-2.063-1.128-3.328-2.475a8.411 8.411 0 0 1-1.437-2.055 7.665 7.665 0 0 1-.378-.915q-.55-1.623-.55-3.713 0-2.035.853-3.85A8.769 8.769 0 0 1 5 5.344a10.277 10.277 0 0 1 .307-.256 11.233 11.233 0 0 1 2.264-1.397 14.794 14.794 0 0 1 1.861-.721 16.153 16.153 0 0 1 2.795-.601 21.919 21.919 0 0 1 2.788-.169 29.049 29.049 0 0 1 3.136.161 21.344 21.344 0 0 1 2.969.527q2.695.687 5.335 1.952L24.53 9.295a17.323 17.323 0 0 0-2.269-1.11 22.927 22.927 0 0 0-2.104-.732q-2.502-.743-5.252-.743-2.544 0-4.332.689a6.995 6.995 0 0 0-1.388.714 5.223 5.223 0 0 0-1.222 1.111 4.103 4.103 0 0 0-.868 2.601 6.817 6.817 0 0 0 .071 1.008 5.056 5.056 0 0 0 .232.945 3.233 3.233 0 0 0 .416.787q.311.439.794.863.907.797 2.53 1.622 1.622.825 4.317 1.815 3.19 1.21 5.39 2.475a18.665 18.665 0 0 1 1.7 1.097q1.057.771 1.82 1.598 1.32 1.43 1.898 3.08a10.297 10.297 0 0 1 .521 2.425 12.59 12.59 0 0 1 .056 1.205 11.85 11.85 0 0 1-.278 2.618 9.518 9.518 0 0 1-.767 2.167q-1.045 2.09-2.887 3.548a11.886 11.886 0 0 1-2.848 1.651 14.841 14.841 0 0 1-1.58.549 19.158 19.158 0 0 1-3.762.67 23.065 23.065 0 0 1-1.848.072 26.052 26.052 0 0 1-4.277-.337 20.927 20.927 0 0 1-3.038-.735 21.013 21.013 0 0 1-2.952-1.201A15.638 15.638 0 0 1 0 38.115ZM38.775 12.76v4.785q1.54-2.31 3.933-3.877a9.524 9.524 0 0 1 3.908-1.444A12.446 12.446 0 0 1 48.4 12.1a12.774 12.774 0 0 1 2.786.285q2.802.626 4.447 2.63a10.122 10.122 0 0 1 1.982 4.058q.359 1.453.404 3.152a18.57 18.57 0 0 1 .006.49V41.36h-4.95V23.265a11.153 11.153 0 0 0-.169-2.003q-.207-1.131-.666-2.033a5.879 5.879 0 0 0-.595-.941q-1.43-1.843-4.07-1.843-1.265 0-2.475.468a9.996 9.996 0 0 0-2.037 1.079 11.344 11.344 0 0 0-.301.213q-1.127.825-2.089 1.925-.963 1.1-1.733 2.31v18.92h-4.95v-28.6h4.785ZM191.95 38.665l10.175-11.825-9.79-11.33 3.85-3.355 8.855 11.44 8.69-11.22 3.685 3.135-9.515 11.11 10.45 12.045-3.74 3.19-9.625-11.935-9.515 11.825-3.52-3.08Zm-30.58-36.85-1.485 4.18a21.427 21.427 0 0 0-1.986-.91 24.137 24.137 0 0 0-.489-.19 7.795 7.795 0 0 0-1.992-.451 9.546 9.546 0 0 0-.923-.044 5.941 5.941 0 0 0-1.666.222 4.56 4.56 0 0 0-2.046 1.236 4.654 4.654 0 0 0-1.071 1.852q-.332 1.046-.332 2.41v3.685h8.47v4.29h-8.47V41.36h-4.95V18.095h-4.4v-4.29h4.4V10.45a16.357 16.357 0 0 1 0-.038q.003-1.255.199-2.376a10.936 10.936 0 0 1 .516-1.931 10.422 10.422 0 0 1 1.175-2.29 9.145 9.145 0 0 1 .805-1.01q1.265-1.375 3.08-2.09a10.388 10.388 0 0 1 3.102-.685 12.301 12.301 0 0 1 .858-.03 17.262 17.262 0 0 1 1.772.086q1.219.126 2.216.437 1.677.522 3.217 1.292ZM167.695.66V31.9a11.354 11.354 0 0 0 .103 1.588q.255 1.795 1.135 2.812a4.05 4.05 0 0 0 2.521 1.362 5.898 5.898 0 0 0 .916.068q1.045 0 2.035-.247.99-.248 1.76-.578l1.21 4.015a9.983 9.983 0 0 1-.882.339q-.437.147-.94.279a19.238 19.238 0 0 1-.626.152 13.099 13.099 0 0 1-1.735.267 16.782 16.782 0 0 1-1.482.063 11.78 11.78 0 0 1-2.261-.209 9.932 9.932 0 0 1-1.287-.341q-1.622-.55-2.832-1.705a7.304 7.304 0 0 1-1.363-1.8 9.346 9.346 0 0 1-.535-1.17q-.593-1.567-.674-3.707a18.285 18.285 0 0 1-.013-.693V.66h4.95ZM64.66 23.573a18.808 18.808 0 0 0-.31 3.487 19.086 19.086 0 0 0 .071 1.665 15.797 15.797 0 0 0 1.001 4.385q1.073 2.75 2.971 4.73 1.897 1.98 4.51 3.08a13.557 13.557 0 0 0 1.678.58 15.12 15.12 0 0 0 4.014.52 16.747 16.747 0 0 0 .564-.009 14.538 14.538 0 0 0 5.073-1.063q2.613-1.073 4.538-3.053a13.104 13.104 0 0 0 1.015-1.177 14.389 14.389 0 0 0 1.982-3.58 15.298 15.298 0 0 0 .734-2.552 18.741 18.741 0 0 0 .339-3.636 19.208 19.208 0 0 0-.13-2.266 15.296 15.296 0 0 0-.97-3.894 15.795 15.795 0 0 0-.364-.839 13.431 13.431 0 0 0-2.661-3.836q-1.925-1.925-4.537-2.97-2.613-1.045-5.583-1.045a17.135 17.135 0 0 0-.657.013 14.84 14.84 0 0 0-4.981 1.032q-2.612 1.045-4.509 2.97a12.795 12.795 0 0 0-1.311 1.564 14.742 14.742 0 0 0-1.687 3.139 15.021 15.021 0 0 0-.79 2.755ZM187 12.76v28.6h-4.95v-28.6H187Zm-99.22 14.3q0-2.145-.687-4.07a10.76 10.76 0 0 0-1.307-2.56 9.743 9.743 0 0 0-.618-.795q-1.238-1.43-2.915-2.282-1.678-.853-3.658-.853a10.587 10.587 0 0 0-2.874.369 7.72 7.72 0 0 0-3.891 2.491 9.833 9.833 0 0 0-2.021 4.056q-.362 1.461-.395 3.176a18.078 18.078 0 0 0-.004.358q0 2.145.688 4.098a11.072 11.072 0 0 0 1.272 2.551 9.983 9.983 0 0 0 .652.859q1.238 1.457 2.916 2.31 1.677.852 3.657.852a10.279 10.279 0 0 0 2.155-.217 8.352 8.352 0 0 0 1.695-.553q1.705-.77 2.888-2.172a9.551 9.551 0 0 0 1.511-2.511 11.385 11.385 0 0 0 .304-.817 12.539 12.539 0 0 0 .541-2.561 15.954 15.954 0 0 0 .091-1.729Zm94.329-20.181a3.332 3.332 0 0 0 2.416.986q1.595 0 2.53-.935a3.073 3.073 0 0 0 .809-1.448 4.393 4.393 0 0 0 .126-1.082 3.993 3.993 0 0 0 0-.045 3.333 3.333 0 0 0-1.018-2.402 4.066 4.066 0 0 0-.031-.032 3.332 3.332 0 0 0-2.416-.986q-1.595 0-2.53.935a3.073 3.073 0 0 0-.809 1.448 4.393 4.393 0 0 0-.126 1.082 3.993 3.993 0 0 0 0 .045 3.333 3.333 0 0 0 1.018 2.403 4.066 4.066 0 0 0 .031.031Z" vector-effect="non-scaling-stroke" id="svgGroup" stroke-linecap="round" fill-rule="evenodd" font-size="12" stroke="#d81f26" stroke-width=".945" fill="#d81f26" style="stroke:#d81f26;stroke-width:.25mm;fill:#d81f26"/></svg>