<svg width="218.35" height="42.02" viewBox="0 0 218.35 42.02" xmlns="http://www.w3.org/2000/svg"><g id="svgGroup" stroke-linecap="round" fill-rule="evenodd" font-size="9pt" stroke="#d81f26" stroke-width="0.25mm" fill="#d81f26" style="stroke:#d81f26;stroke-width:0.25mm;fill:#d81f26"><path d="M 126.39 35.75 L 133.705 12.485 L 138.105 14.08 L 129.03 41.36 L 123.585 41.36 L 116.985 20.075 L 110.33 41.36 L 104.885 41.36 L 95.865 14.08 L 100.43 12.485 L 107.8 35.75 L 114.51 14.795 L 119.845 14.795 L 126.39 35.75 Z M 0 38.115 L 2.64 33.715 Q 4.62 35.365 7.095 36.41 A 12.842 12.842 0 0 0 10.049 37.241 A 17.665 17.665 0 0 0 12.87 37.455 A 15.39 15.39 0 0 0 15.371 37.265 Q 16.703 37.045 17.782 36.571 A 7.535 7.535 0 0 0 19.14 35.805 Q 21.367 34.215 21.447 31.551 A 6.664 6.664 0 0 0 21.45 31.35 A 7.118 7.118 0 0 0 21.308 29.905 A 6.156 6.156 0 0 0 21.12 29.205 Q 20.79 28.215 19.828 27.308 A 8.389 8.389 0 0 0 18.997 26.627 Q 18.557 26.308 18.022 25.989 A 18.504 18.504 0 0 0 17.133 25.493 A 28.171 28.171 0 0 0 15.756 24.823 Q 15.084 24.516 14.307 24.195 A 62.798 62.798 0 0 0 12.65 23.54 A 57.347 57.347 0 0 1 10.55 22.678 Q 8.907 21.962 7.618 21.258 Q 5.555 20.13 4.29 18.783 A 8.411 8.411 0 0 1 2.853 16.728 A 7.665 7.665 0 0 1 2.475 15.813 Q 1.925 14.19 1.925 12.1 Q 1.925 10.065 2.778 8.25 A 8.769 8.769 0 0 1 5 5.344 A 10.277 10.277 0 0 1 5.307 5.088 A 11.233 11.233 0 0 1 7.571 3.691 A 14.794 14.794 0 0 1 9.432 2.97 A 16.153 16.153 0 0 1 12.227 2.369 A 21.919 21.919 0 0 1 15.015 2.2 A 29.049 29.049 0 0 1 18.151 2.361 A 21.344 21.344 0 0 1 21.12 2.888 Q 23.815 3.575 26.455 4.84 L 24.53 9.295 A 17.323 17.323 0 0 0 22.261 8.185 A 22.927 22.927 0 0 0 20.157 7.453 Q 17.655 6.71 14.905 6.71 Q 12.361 6.71 10.573 7.399 A 6.995 6.995 0 0 0 9.185 8.113 A 5.223 5.223 0 0 0 7.963 9.224 A 4.103 4.103 0 0 0 7.095 11.825 A 6.817 6.817 0 0 0 7.166 12.833 A 5.056 5.056 0 0 0 7.398 13.778 A 3.233 3.233 0 0 0 7.814 14.565 Q 8.125 15.004 8.608 15.428 Q 9.515 16.225 11.138 17.05 Q 12.76 17.875 15.455 18.865 Q 18.645 20.075 20.845 21.34 A 18.665 18.665 0 0 1 22.545 22.437 Q 23.602 23.208 24.365 24.035 Q 25.685 25.465 26.263 27.115 A 10.297 10.297 0 0 1 26.784 29.54 A 12.59 12.59 0 0 1 26.84 30.745 A 11.85 11.85 0 0 1 26.562 33.363 A 9.518 9.518 0 0 1 25.795 35.53 Q 24.75 37.62 22.908 39.078 A 11.886 11.886 0 0 1 20.06 40.729 A 14.841 14.841 0 0 1 18.48 41.278 A 19.158 19.158 0 0 1 14.718 41.948 A 23.065 23.065 0 0 1 12.87 42.02 A 26.052 26.052 0 0 1 8.593 41.683 A 20.927 20.927 0 0 1 5.555 40.948 A 21.013 21.013 0 0 1 2.603 39.747 A 15.638 15.638 0 0 1 0 38.115 Z M 38.775 12.76 L 38.775 17.545 Q 40.315 15.235 42.708 13.668 A 9.524 9.524 0 0 1 46.616 12.224 A 12.446 12.446 0 0 1 48.4 12.1 A 12.774 12.774 0 0 1 51.186 12.385 Q 53.988 13.011 55.633 15.015 A 10.122 10.122 0 0 1 57.615 19.073 Q 57.974 20.526 58.019 22.225 A 18.57 18.57 0 0 1 58.025 22.715 L 58.025 41.36 L 53.075 41.36 L 53.075 23.265 A 11.153 11.153 0 0 0 52.906 21.262 Q 52.699 20.131 52.24 19.229 A 5.879 5.879 0 0 0 51.645 18.288 Q 50.215 16.445 47.575 16.445 Q 46.31 16.445 45.1 16.913 A 9.996 9.996 0 0 0 43.063 17.992 A 11.344 11.344 0 0 0 42.762 18.205 Q 41.635 19.03 40.673 20.13 Q 39.71 21.23 38.94 22.44 L 38.94 41.36 L 33.99 41.36 L 33.99 12.76 L 38.775 12.76 Z M 191.95 38.665 L 202.125 26.84 L 192.335 15.51 L 196.185 12.155 L 205.04 23.595 L 213.73 12.375 L 217.415 15.51 L 207.9 26.62 L 218.35 38.665 L 214.61 41.855 L 204.985 29.92 L 195.47 41.745 L 191.95 38.665 Z M 161.37 1.815 L 159.885 5.995 A 21.427 21.427 0 0 0 157.899 5.085 A 24.137 24.137 0 0 0 157.41 4.895 A 7.795 7.795 0 0 0 155.418 4.444 A 9.546 9.546 0 0 0 154.495 4.4 A 5.941 5.941 0 0 0 152.829 4.622 A 4.56 4.56 0 0 0 150.783 5.858 A 4.654 4.654 0 0 0 149.712 7.71 Q 149.38 8.756 149.38 10.12 L 149.38 13.805 L 157.85 13.805 L 157.85 18.095 L 149.38 18.095 L 149.38 41.36 L 144.43 41.36 L 144.43 18.095 L 140.03 18.095 L 140.03 13.805 L 144.43 13.805 L 144.43 10.45 A 16.357 16.357 0 0 1 144.43 10.412 Q 144.433 9.157 144.629 8.036 A 10.936 10.936 0 0 1 145.145 6.105 A 10.422 10.422 0 0 1 146.32 3.815 A 9.145 9.145 0 0 1 147.125 2.805 Q 148.39 1.43 150.205 0.715 A 10.388 10.388 0 0 1 153.307 0.03 A 12.301 12.301 0 0 1 154.165 0 A 17.262 17.262 0 0 1 155.937 0.086 Q 157.156 0.212 158.153 0.523 Q 159.83 1.045 161.37 1.815 Z M 167.695 0.66 L 167.695 31.9 A 11.354 11.354 0 0 0 167.798 33.488 Q 168.053 35.283 168.933 36.3 A 4.05 4.05 0 0 0 171.454 37.662 A 5.898 5.898 0 0 0 172.37 37.73 Q 173.415 37.73 174.405 37.483 Q 175.395 37.235 176.165 36.905 L 177.375 40.92 A 9.983 9.983 0 0 1 176.493 41.259 Q 176.056 41.406 175.553 41.538 A 19.238 19.238 0 0 1 174.927 41.69 A 13.099 13.099 0 0 1 173.192 41.957 A 16.782 16.782 0 0 1 171.71 42.02 A 11.78 11.78 0 0 1 169.449 41.811 A 9.932 9.932 0 0 1 168.162 41.47 Q 166.54 40.92 165.33 39.765 A 7.304 7.304 0 0 1 163.967 37.965 A 9.346 9.346 0 0 1 163.432 36.795 Q 162.839 35.228 162.758 33.088 A 18.285 18.285 0 0 1 162.745 32.395 L 162.745 0.66 L 167.695 0.66 Z M 64.66 23.573 A 18.808 18.808 0 0 0 64.35 27.06 A 19.086 19.086 0 0 0 64.421 28.725 A 15.797 15.797 0 0 0 65.422 33.11 Q 66.495 35.86 68.393 37.84 Q 70.29 39.82 72.903 40.92 A 13.557 13.557 0 0 0 74.581 41.5 A 15.12 15.12 0 0 0 78.595 42.02 A 16.747 16.747 0 0 0 79.159 42.011 A 14.538 14.538 0 0 0 84.232 40.948 Q 86.845 39.875 88.77 37.895 A 13.104 13.104 0 0 0 89.785 36.718 A 14.389 14.389 0 0 0 91.767 33.138 A 15.298 15.298 0 0 0 92.501 30.586 A 18.741 18.741 0 0 0 92.84 26.95 A 19.208 19.208 0 0 0 92.71 24.684 A 15.296 15.296 0 0 0 91.74 20.79 A 15.795 15.795 0 0 0 91.376 19.951 A 13.431 13.431 0 0 0 88.715 16.115 Q 86.79 14.19 84.178 13.145 Q 81.565 12.1 78.595 12.1 A 17.135 17.135 0 0 0 77.938 12.113 A 14.84 14.84 0 0 0 72.957 13.145 Q 70.345 14.19 68.448 16.115 A 12.795 12.795 0 0 0 67.137 17.679 A 14.742 14.742 0 0 0 65.45 20.818 A 15.021 15.021 0 0 0 64.66 23.573 Z M 187 12.76 L 187 41.36 L 182.05 41.36 L 182.05 12.76 L 187 12.76 Z M 87.78 27.06 Q 87.78 24.915 87.093 22.99 A 10.76 10.76 0 0 0 85.786 20.43 A 9.743 9.743 0 0 0 85.168 19.635 Q 83.93 18.205 82.253 17.353 Q 80.575 16.5 78.595 16.5 A 10.587 10.587 0 0 0 75.721 16.869 A 7.72 7.72 0 0 0 71.83 19.36 A 9.833 9.833 0 0 0 69.809 23.416 Q 69.447 24.877 69.414 26.592 A 18.078 18.078 0 0 0 69.41 26.95 Q 69.41 29.095 70.098 31.048 A 11.072 11.072 0 0 0 71.37 33.599 A 9.983 9.983 0 0 0 72.022 34.458 Q 73.26 35.915 74.938 36.768 Q 76.615 37.62 78.595 37.62 A 10.279 10.279 0 0 0 80.75 37.403 A 8.352 8.352 0 0 0 82.445 36.85 Q 84.15 36.08 85.333 34.678 A 9.551 9.551 0 0 0 86.844 32.167 A 11.385 11.385 0 0 0 87.148 31.35 A 12.539 12.539 0 0 0 87.689 28.789 A 15.954 15.954 0 0 0 87.78 27.06 Z M 182.109 6.879 A 3.332 3.332 0 0 0 184.525 7.865 Q 186.12 7.865 187.055 6.93 A 3.073 3.073 0 0 0 187.864 5.482 A 4.393 4.393 0 0 0 187.99 4.4 A 3.993 3.993 0 0 0 187.99 4.355 A 3.333 3.333 0 0 0 186.972 1.953 A 4.066 4.066 0 0 0 186.941 1.921 A 3.332 3.332 0 0 0 184.525 0.935 Q 182.93 0.935 181.995 1.87 A 3.073 3.073 0 0 0 181.186 3.318 A 4.393 4.393 0 0 0 181.06 4.4 A 3.993 3.993 0 0 0 181.06 4.445 A 3.333 3.333 0 0 0 182.078 6.848 A 4.066 4.066 0 0 0 182.109 6.879 Z" vector-effect="non-scaling-stroke"></path></g></svg>